<?xml version="1.0" encoding="UTF-8"?><svg id="OBJECTS" xmlns="http://www.w3.org/2000/svg" viewBox="0 0 500 470.9"><defs><style>.cls-1{fill:#db0303;}.cls-1,.cls-2{fill-rule:evenodd;}.cls-2{fill:#1cbf00;}</style></defs><g><path class="cls-1" d="M87.2,222.47c3.25-1.66,5.87-3.76,7.78-6.65,1.17-1.76,2.33-3.53,3.58-5.23,1.53-2.07,2.02-2.17,4.39-1.09,.73,.33,1.4,.8,2.2,1.27-.48,2.41-1.42,4.41-3.11,6.06-3.47,3.39-6.03,7.22-8.19,12.2,.72,.44,1.46,.9,2.44,1.5,.42-2.06,1.55-3.44,3.24-4.2,.54-.25,1.33,.07,2.01,.13-.34,3.1-1.47,4.53-4.25,5.41,1.76,1.03,1.44,2.42,.83,3.85-1.07,2.5-2.15,5-3.43,7.99-.88-.99-1.78-1.55-1.92-2.26-.38-1.94-1.62-2.98-3.37-3.98-.53,.8-1.07,1.62-1.71,2.59,.99,.39,1.86,.73,3.12,1.23-.98,1.59-1.74,3.03-2.72,4.31-.86,1.12-2.31,1.09-3.23-.32-.96-1.46-2.14-1.77-3.83-1.82-.82,1.82-1.54,4.17-4.45,2.44-.53,1.45-1.29,2.34-2.87,2.13-.45-.06-.99,.33-1.45,.6-1.95,1.14-2.96,.94-4.36-.9-.31-.41-.71-.77-1.26-1.37-.41,1.07-.72,1.87-1.02,2.65-4.3,1.26-6.8-.11-7.64-4.42-.28-1.47-.31-3.26,.27-4.57,.98-2.19,.82-4.15,.29-6.35-.78-3.19-.38-6.45,.36-9.59,2.48-10.54,6.22-20.61,11.71-29.96,1.2-2.05,2.81-3.84,4.19-5.79,.52-.73,1.12-1.5,1.33-2.35,4.47-17.89,13.32-33.4,25.14-47.31,.48-.56,1.35-1.14,1.34-1.69-.1-3.68,3.41-4.7,4.94-7.14,2.19-3.46,5.39-5.95,8.03-8.98,.46-.53,.83-1.14,.98-2.06-.67,.49-1.37,.96-2.01,1.49-7.95,6.56-14.9,14.13-21.7,21.84-1.05,1.19-1.91,2.69-3.71,3.16-.97-1.2-.35-2.22,.29-3.04,1.93-2.45,3.71-5.1,6-7.15,6.44-5.76,12.31-12.05,17.99-18.56,9.06-10.4,19.73-18.84,31.46-26,10.01-6.11,20.07-12.06,31.05-16.29,3.49-1.35,6.8-3.14,10.19-4.75,13.46-6.42,27.55-10.23,42.51-10.4,4.2-.05,8.4-.18,12.6,0,1.86,.08,3.69,.83,5.53,1.28,.53,.13,1.05,.38,1.57,.39,12.7,.29,24.91,3.5,37.17,6.4,7.02,1.66,14.06,3.21,21.09,4.8,3.74,.84,7.51,1.52,11.21,2.51,4.96,1.33,9.62,3.39,14.12,5.92,8.48,4.76,16.56,10.11,24.32,15.96,.95,.72,1.92,1.4,2.9,2.09,.12,.09,.32,.07,1.14,.22-4.89-4.28-9.36-8.17-13.82-12.07,.03-.16,.06-.31,.09-.47,.62,.07,1.28,.03,1.87,.23,7.17,2.46,13.47,6.33,19.3,11.25,4.96,4.19,10.46,7.71,15.68,11.59,6.49,4.82,12.58,10.1,17.71,16.42,.26,.32,.6,.57,1.08,.69-6.42-11.1-16.17-19.34-24.24-29.11,.96,.76,1.99,1.44,2.87,2.29,2.05,1.97,4.02,4.02,6.04,6.02,6.85,6.77,13.76,13.48,20.54,20.33,3.61,3.65,7.09,7.44,9.43,12.13,.23,.47,.68,.83,1.07,1.21,.19,.19,.47,.28,.69,.45,1.53,1.14,3.17,2.78,2.51,4.5-.56,1.44-2.58,2.37-4.09,3.32-.34,.22-1.39-.27-1.81-.72-.8-.86-1.38-1.92-2.05-2.88-3.83,2.39-7.59,4.73-11.37,7.09-.65-.75-1.04-1.2-1.5-1.73-4.09,2.23-8.16,4.31-12.09,6.65-1.49,.89-2.66,2.33-4.15,3.68-2.35-1.19-4.78-2.95-6.81-5.24-3.05-3.43-6.09-6.86-9.13-10.3-.61-.69-1.25-1.36-1.76-2.12-2.78-4.14-5.95-7.91-10.15-10.68-.45-.3-.86-.7-1.19-1.14-3.92-5.25-9.69-8-15.06-11.26-2.4-1.46-5.06-2.48-7.88-3.32,2.07,1.5,4.12,3.02,6.21,4.49,1.5,1.05,3.08,1.99,4.57,3.04,.89,.63,1.78,1.28,1.59,2.66-.05,.38,.45,.89,.78,1.26,1.66,1.84,3.4,3.6,5.02,5.48,2,2.32,1.94,2.82-.19,5.44-1.76-.13-2.86-.91-3.46-2.79-.53-1.64-1.65-3.07-2.41-4.64-.62-1.28-1.09-2.63-1.8-4.39-.39-.25-1.27-.74-2.07-1.34-4.13-3.1-8.79-4.68-13.87-5.46-11.1-1.7-22.16-3.61-33.24-5.46-2.05-.34-4.1-.75-5.92-1.8-.02-2.07,.92-3.1,2.72-3.34,1.53-.2,3.07-.33,4.78-.51,.54-.93,1.13-1.94,1.81-3.12-.7-.43-1.26-.89-1.91-1.14-2.04-.8-4.06-1.75-6.17-2.23-6.27-1.44-12.1-4.08-18.03-6.47-.81-.33-1.57-.79-2.28-1.15,.1-1.62,.96-2.1,2.06-1.88,1.23,.24,2.6,.51,3.56,1.23,2.14,1.62,4.45,2.18,7.07,2.5,5.5,.68,10.52,2.93,15.36,5.59q3.22,1.77,6.93,1.09c.2-.94,.41-1.9,.64-2.93-2.47-1.53-5.31-1.84-8.07-2.35-3.59-.66-7.22-1.11-10.82-1.72-1.16-.2-2.34-.49-3.39-.99-1.75-.85-1.99-1.82-.99-3.55,2.44-4.23,5.5-7.62,10.82-7.83,.33-.01,.65-.2,.95-.78-2.2-.04-4.41-.26-6.59-.08-12.28,1.01-24.56,2.17-36.63,4.74-5.79,1.23-11.47,3.03-17.19,4.59-.7,.19-1.36,.48-1.99,1,2.11-.3,4.21-.67,6.33-.88,3.34-.34,4.08,.13,5.8,3.45-1.41,2.07-3.41,3.51-5.69,4.47-4.63,1.95-9.29,3.85-14,5.6-2.95,1.09-5.61,2.59-8.23,4.88,.79,.11,1.35,.26,1.91,.26,7.16,.01,14.17,1.28,21.21,2.35,2.77,.42,4.56,2.07,6.15,4.19,.78,1.05,.59,1.9-.22,2.68-2.66,2.58-5.52,4.77-9.41,5.19-5.47,.59-10.93,.88-16.4,.17-4.7-.61-9.47-.66-14.07-2.05-1.06-.32-2.36-.11-3.49,.14-8.19,1.79-15.76,5.2-23.11,9.14-2.87,1.53-5.7,3.13-8.92,4.43,.38-.49,.67-1.12,1.16-1.45,6.41-4.23,12.84-8.43,19.29-12.61,1.52-.98,3.1-1.86,5.16-3.08-.96-.51-1.43-.94-1.91-.95-.5-.02-1.01,.37-1.52,.57-15.28,6.37-29.34,14.77-42.58,24.78-11.02,8.32-20.08,18.48-28.85,28.99-3.4,4.08-6.69,8.3-9.63,12.71-2.07,3.1-3.49,6.65-5.18,10.01-.57,1.13-1.11,2.27-1.67,3.41-1.41-.33-1.75-1.01-1.22-2.04,.46-.89,1.13-1.68,1.56-2.59,1.64-3.49,3.37-6.95,4.79-10.53,1.75-4.4,4.13-8.36,7.01-12.11,7.22-9.41,15.24-18.1,23.18-26.89,7.62-8.44,15.98-15.9,24.92-22.8,1.21-.94,2.42-1.89,3.41-3.21-.75,.41-1.54,.78-2.26,1.25-7.12,4.58-13.52,10.05-19.5,16.04-2.42,2.43-4.94,4.55-8.22,5.8-1.46,.55-2.84,1.72-3.89,2.93-9.33,10.64-18.34,21.49-24.42,34.52-4.04,8.66-8.58,17.09-12.74,25.7-2.4,4.96-4.51,10.06-6.73,15.1-.32,.73-.49,1.52-.73,2.29ZM305.02,89.56c-7.77-2.01-12.58-1.51-19.35,2.37,6.33,2.41,12.77,1.81,19.84,1.42-2.24-1.41-1.12-2.52-.49-3.79Zm104.96,49.39c.16-.08,.32-.17,.48-.25-.86-2.73-3.03-6.28-4.81-7.48,1.6,2.85,2.96,5.29,4.33,7.73Zm-99.21-48.34q1.75,1.44,3.84,1.11c-1.48-.43-2.66-.77-3.84-1.11Zm-14.14-7.61s-.03,.05-.05,.08h1.07s0-.05,0-.08h-1.02Z"/><path class="cls-1" d="M369.92,391.57c.89,.63,1.51,1.07,2.34,1.66-1.06,.51-1.92,.93-2.74,1.33,.46,3.07,.73,3.34,3.48,3.59-.36,.75-.72,1.51-1.27,2.65,1.06-.11,1.74-.16,2.41-.26,.61-.09,1.2-.24,1.99,0-.75,.51-1.47,1.08-2.25,1.52-1.66,.96-3.37,1.84-5.05,2.78-1.01,.57-2.09,.93-2.25,2.48-.09,.87-1.06,1.64-1.4,2.12,.14,1.49,.65,2.85,.25,3.81-.39,.92-1.71,1.47-2.68,2.08-.44,.27-1.05,.29-1.58,.41-2.88,.68-5.46,1.89-7.84,3.74-1.7,1.32-3.81,2.1-5.73,3.12-1.27,.67-2.66,1.18-3.77,2.06-4.16,3.28-8.65,5.87-13.89,6.82-1.87,.34-3.82,.4-5.72,.32-2.13-.08-2.77-.96-3.46-3.92-.49-2.1-.28-2.57,1.73-3.78,.63-.38,1.3-.67,1.94-1.03,.52-.29,1.02-.61,1.46-1.06-4.81,.64-9.57,1.19-14.11,3.11-7.91,3.35-15.86,6.77-24.42,8-7.58,1.09-15.24,1.71-22.86,2.52-1.5,.16-2.83,.29-4.27,1.23-1.58,1.04-3.78,1.44-5.74,1.51-4.65,.15-9.32,.16-13.96-.19-14.3-1.06-28.46-3.26-42.55-5.88-4.24-.79-8.39-1.83-12.01-4.36-1.42-.99-2.46-2.14-2.34-4.06,.12-1.92,.4-2.42,2.24-2.23,2.07,.21,4.16,.57,6.16,1.15,6.48,1.9,12.92,3.94,19.38,5.9,1.12,.34,2.29,.51,3.59,.41-.65-.39-1.28-.81-1.96-1.15-7.56-3.76-15.51-6.52-23.61-8.77-3.64-1.01-7.5-1.2-11.66-1.82,1.26,1.51,2.21,2.65,3.39,4.07-2.59,.81-4.62,.28-6.44-.66-3.73-1.92-7.37-4.03-11.01-6.13-1.88-1.08-3.68-2.31-5.96-3.76,.17-1.83,.38-4.04,.64-6.75-.96-.56-2.33-1.46-3.78-2.16-3.37-1.64-6.77-3.22-10.18-4.77-4.1-1.87-7.88-4.25-11.34-7.16-7.09-5.96-14.28-11.79-21.25-17.88-2.88-2.52-5.35-5.52-7.94-8.36-1.24-1.35-2.22-2.95-3.53-4.22-3.33-3.23-5.76-7.13-8.3-10.95-1.41-2.12-2.11-4.48-2.53-6.95-.7-4.17-1.48-8.32-2.02-12.51-.27-2.08-.16-4.22-.06-6.32,.08-1.65,1.09-2.7,2.72-3.03,.98-.2,1.97-.34,2.96-.47,1.6-.2,2.66,.44,3.68,1.78,1.7,2.26,3.63,4.37,5.65,6.34,1.7,1.66,3.79,2.68,6.12,3.47,2.36,.79,4.5,2.36,6.58,3.81,1.55,1.08,2.86,2.52,4.29,3.81,1.62-2.17,1.66-2.35-.06-3.88-2.6-2.3-5.29-4.52-7.91-6.8-.55-.48-1.03-1.04-1.47-1.63-.66-.9-.38-1.76,.3-2.5,.74-.8,1.54-.44,2.18,.13,1.91,1.71,3.95,3.32,5.61,5.26,2.36,2.75,5.2,4.67,8.26,6.58,4.98,3.1,10.15,5.75,15.35,8.41,1.19,.61,2.18,1.62,3.26,2.45,1.3,1.01,2.58,2.04,3.88,3.06,.5,.4,1.38,.71,1.46,1.18,.44,2.55,2.7,2.67,4.38,3.53,1.27,.65,2.63,1.13,4.17,1.25-.66-.58-1.33-1.16-1.99-1.75-4.69-4.1-9.4-8.19-14.07-12.32-1.16-1.02-2.24-2.16-2.25-4.02,1.57-.7,2.88,.01,4.08,.79,2.3,1.5,4.53,3.11,6.78,4.68,6.91,4.81,13.6,9.99,20.78,14.36,11.19,6.8,22.85,12.72,35.27,16.99,1.25,.43,2.43,1.08,3.85,1.72-1.05,1.22-1.98,.57-2.72,.38-9.14-2.24-18.19-4.75-26.85-8.55-1.25-.55-2.51-1.04-3.95-1.29,.61,.43,1.2,.87,1.82,1.28,10.97,7.34,23.34,10.81,36.11,12.96,16.69,2.8,33.54,3.81,50.43,4.58,9.07,.41,17.84-.63,26.47-3.31,.61-.19,1.24-.34,1.82-.6,10.65-4.79,21.97-8.08,31.91-14.48,1.22-.79,2.56-1.44,3.92-1.94,.68-.25,1.96-.3,2.22,.08,.5,.73,.78,1.9,.58,2.76-.21,.9-.94,1.85-1.71,2.42-1.75,1.29-3.56,2.6-5.54,3.48-6.6,2.93-13.3,5.61-19.91,8.52-3.6,1.59-7.46,1.65-11.21,2.41-7.96,1.62-15.91,3.25-23.87,4.88-.33,.07-.65,.17-.96,.62,.47,.04,.94,.15,1.41,.12,9.95-.5,19.8-1.96,29.62-3.58,1.15-.19,2.29-.67,3.35-1.19,9.11-4.47,18.37-8.66,27.25-13.55,10.69-5.87,19.51-14.19,27.61-23.29,.66-.73,1.35-1.43,2.09-2.21,1.03,2.84,1.15,5.78,2.99,8.06,.05,.07,.09,.17,.1,.25,.37,5.86,4.31,10.35,5.92,15.75,.75,2.52,2.11,4.85,2.15,7.6,0,.4,.42,.78,.57,1.19,.32,.94,.8,1.9,.84,2.86,.1,2.08,.07,4.19-.15,6.26-.07,.63-.85,1.27-1.43,1.75-.61,.5-1.38,.79-2.31,1.3Zm-11.48,18.78c-5.28,2.19-10.56,4.37-15.84,6.56,6.06-.42,11.04-3.48,15.84-6.56Z"/><path class="cls-1" d="M417.21,227.05c-.26,3.41-2.76,5.42-4.51,7.89-1.03,1.46-1.26,3.04-.95,4.73,1.17,6.39-.1,12.31-2.52,18.3-1.8,4.47-2.59,9.37-3.62,14.13-.88,4.04-1.46,8.15-2.19,12.22-.15,.81-.37,1.61-.6,2.41-1.06,3.66-2.63,4.47-6.28,3.37-1.13-.34-1.43-1.15-1.29-2.11,.29-2.09,.49-4.22,1.14-6.21,1.13-3.5,2.57-6.89,3.86-10.34,2.43-6.49,4.08-13.14,4.74-20.08,.41-4.29,1.41-8.52,2-12.8,.22-1.61,.38-3.37-.04-4.89-2.74-9.83-3.72-19.9-4.22-30.03-.23-4.78-.2-9.58-.36-14.37-.1-2.88,.29-5.66,1.28-8.38,1.66-.65,1.93,.89,2.49,1.54,1.5-.2,2.87-.38,4.54-.6-.22-1.23-.49-2.69-.75-4.15,4.2-1.85,8.27-3.65,12.64-5.57,.38,.89,.8,1.77,1.12,2.68,2.29,6.52,4.05,13.19,5.15,20.03,1.5,9.36,2.96,18.73,4.38,28.1,.32,2.09,.53,4.22,.56,6.33,.18,12.52,1.19,25.02,.52,37.56-.26,4.96-.04,9.94-.04,14.83,.72-3.09,3.83-32.91,3.7-39.18-.25-13.13-.79-26.25-1.2-39.34,3.21-.71,4.51,.06,5,2.98,.26,1.54,.43,3.11,.44,4.66,.03,9.58,.05,19.16-.01,28.75-.03,5.43-.29,10.86-.31,16.3-.01,3.77,.28,7.54,.33,11.32,.21,13.74-2.22,27.11-5.62,40.34-2.49,9.72-5.31,19.33-8.79,28.74-.44,1.2-.9,2.45-1.01,3.71-.22,2.53-.99,4.85-2.13,7.08-6.48,12.59-14.45,24.1-24.42,34.15-.25,.25-.56,.45-1.06,.85-.47-1.13-.89-2.1-1.28-3.1-5.86-14.98-11.72-29.97-17.58-44.95-1.17-2.98-2.4-5.93-3.48-8.94-.21-.57,0-1.44,.3-2.03,1.81-3.51,3.63-7.02,5.61-10.44,.81-1.41,1.95-2.65,3.08-3.83,1.08-1.12,2.28-2.15,3.55-3.04,5.69-3.99,9.53-9.62,13.21-15.34,1.16-1.81,1.84-4.01,2.4-6.13,2.03-7.65,3.78-15.38,6.71-22.75,1.63-4.1,3.24-8.21,4.98-12.27,1.15-2.67,1.81-5.41,1.76-8.3-.07-4.56-.23-9.12-.35-13.67-.29-.05-.59-.11-.88-.16Z"/><path class="cls-1" d="M328.44,73.2c-2.92,.25-14.62-2.74-16.92-4.23,.57-2.73,1.64-3.65,4.06-2.8,3.68,1.29,7.25,2.89,10.84,4.45,.98,.43,1.87,1.12,2.02,2.58Z"/><path class="cls-1" d="M110.24,222.03c-.69-.77-1.47-1.23-1.51-1.74-.3-4.19-.12-8.36,.59-12.56,1.5-.21,2.54,.25,2.75,1.45,.74,4.29,.63,8.5-1.82,12.86Z"/><path class="cls-1" d="M66.1,192.98c-1.47-.42-1.62-1.43-1.45-2.46,.75-4.47,2.34-8.57,5.44-12.57,0,.84,.09,1.2-.01,1.49-1.51,4.2-2.92,8.42-3.34,12.9-.02,.2-.36,.36-.65,.63Z"/></g><g><g><path class="cls-2" d="M184.25,217.87c-7.85,2.75-15.71,5.47-23.57,8.15-29.39,10.07-58.86,19.87-87.85,31.07-6.47,2.5-12.98,4.93-19.38,7.62-2.49,1.04-4.75,2.69-7.07,4.13-1.24,.78-1.56,1.96-.96,3.37,.98,2.31,1.94,4.62,2.96,7.09-.63,.25-1.46,.56-2.29,.91-7.16,3.02-14.36,5.93-21.45,9.11-3.22,1.46-6.26,3.41-9.3,5.27-.79,.49-1.65,1.37-1.87,2.22-.63,2.53,1.6,5.27,4.23,5.14,2.99-.16,6.05-.32,8.94-1.07,8.47-2.24,16.98-4.45,25.27-7.23,12.29-4.11,24.41-8.76,36.65-13.07,18.01-6.34,36.04-12.6,54.06-18.88,.45-.16,.93-.19,1.4-.27-.69,.43-1.36,.91-2.09,1.22-13.88,5.65-27.85,11.13-41.66,16.95-21.76,9.17-44.11,16.57-66.76,23.11-6.93,2-13.83,4.13-20.68,6.37-1.88,.6-3.56,1.82-5.35,2.72-1.5,.75-1.75,1.94-1.41,3.46,.29,1.33,.48,2.66,.73,4.03-.93,.56-1.72,1.02-2.49,1.47-4.86,2.9-5.08,3.49-3.21,8.8,.8,2.28,1.21,2.6,3.51,2.72,2.98,.18,5.83-.43,8.57-1.47,5.73-2.15,11.51-4.21,17.11-6.65,30.14-13.2,60.24-26.53,90.37-39.75,3.16-1.38,6.47-2.49,9.79-3.49,3.5-1.07,7.06-1.99,10.6-2.96,1.31-.35,2.61-.72,3.91-1.1,7.87-2.33,15.74-4.75,23.61-7.14,1.04-.31,2.17-.47,2.63-1.72,.85-2.43,1.76-4.83,2.54-7.27,.38-1.19,.42-2.47,.77-3.68,.86-2.99,1.37-6.21,2.86-8.86,1.22-2.18,1.4-4.56,2.36-6.75,1.38-3.15,2.01-6.65,2.98-9.99,1.31-4.65,2.62-9.3,4.05-14.33-1.15,.34-1.84,.51-2.49,.74Zm-36.46,42.27c-.25,.07-.48,.12-.67,.15,.28-.19,.55-.43,.85-.6,.1-.07,.22-.13,.34-.18,3.86-1.6,7.74-3.16,11.62-4.71,.47-.19,.98-.31,1.75-.54-1.14,1.33-10,4.93-13.88,5.89Z"/><path class="cls-2" d="M477.92,114.15c-3.86,1.06-7.79,1.97-11.55,3.33-47.15,17.07-94.22,34.38-141.44,51.27-1.44,.51-2.9,1.03-4.35,1.54-17.06,6.09-34.15,12.08-51.25,18.04-15.36,5.37-30.71,10.7-46.07,16.04-4.1,1.43-8.2,2.84-12.29,4.27-.29,.1-.57,.21-.86,.31-.7,.24-1.39,.49-2.09,.72-1.84,.65-2.77,1.5-3.25,3.49-1.91,8.05-4.05,16.04-6.1,24.06-.12,.46-.02,.99-.02,1.69,.42-.16,.86-.32,1.28-.47,1.34-.5,2.65-1,3.95-1.49,2.47-.91,4.87-1.81,7.31-2.66,.41-.15,.82-.29,1.22-.44,21.7-7.74,43.4-15.53,65.06-23.41,16.8-6.11,33.58-12.29,50.34-18.56,10.88-4.06,21.76-8.17,32.61-12.32,27.14-10.38,54.26-20.81,80.84-32.61,5.25-2.32,10.4-4.94,15.43-7.76,2.42-1.35,4.46-3.44,6.62-5.27,.5-.41,.76-1.09,1.5-2.21-1.78,.47-2.93,.65-4.01,1.08-5.37,2.06-10.69,4.27-16.09,6.28-38.06,14.28-76.14,28.52-114.2,42.77-.58,.22-1.21,.32-1.82,.46,1.01-.53,2-1.13,3.05-1.56,31.73-12.66,64.04-23.86,95.33-37.65,11.55-5.08,23.23-9.85,34.75-14.97,3.82-1.69,7.52-3.8,11.01-6.12,2.32-1.55,4.19-3.8,6.18-5.78,.45-.46,.63-1.19,1.09-2.1-.99,0-1.63-.13-2.2,.03Zm-151.67,69.32l-.18-.57c.72-.15,1.42-.28,2.13-.43-.66,.34-1.3,.68-1.95,1Z"/><path class="cls-2" d="M500,130.42c-.45,1.13-.64,1.88-1.02,2.52-1.94,3.18-4.3,6.03-7.44,8.01-4.42,2.77-8.82,5.62-13.49,7.87-21.31,10.33-43.18,19.4-65.1,28.29-26.37,10.68-52.81,21.22-79.32,31.57-1.78,.69-3.56,1.4-5.35,2.08-.55,.23-1.12,.46-1.69,.66-14.06,5.48-28.13,10.91-42.23,16.28-26.32,10.02-52.7,19.87-79.16,29.52-2.52,.93-5.06,1.84-7.6,2.77-.1,.03-.2,.07-.31,.1-1.25,.46-2.54,.88-4.19,1.46,.53-2.62,.96-4.96,1.44-7.24,.12-.59,.25-1.16,.38-1.74,.74-3.22,1.68-6.42,2.35-9.65,.26-1.25,.92-1.84,1.91-2.25,.12-.04,.23-.09,.35-.13,1.22-.44,2.46-.88,3.69-1.32,2.81-1.02,5.61-2.03,8.43-3.03,17.02-6.12,34.05-12.2,51-18.48,5.13-1.9,10.28-3.81,15.41-5.71,16.76-6.21,33.51-12.42,50.25-18.65,26.66-9.92,53.3-19.85,79.93-29.85,24.72-9.27,49.28-18.96,73.95-28.36,4.58-1.75,9.35-3.05,14.06-4.46,1.01-.29,2.13-.15,3.73-.24Z"/></g><path class="cls-2" d="M410.34,433.66c-2.83-7.39-5.76-14.73-8.4-22.18-2.61-7.37-4.59-14.98-7.41-22.25-8.87-22.9-17.46-45.9-26.66-68.68-10.86-26.95-20.96-54.23-31.38-81.35-2.28-5.93-4.83-11.76-6.83-17.78-1.09-3.31-2.1-6.65-3.08-10.01-1.25-4.33-2.47-8.68-3.73-13.01-.22-.75-.36-1.51-.54-2.28,.79,.9,1.22,1.9,1.6,2.91,1.46,3.9,2.92,7.81,4.36,11.71,5.64,15.14,11.24,30.3,17.09,45.37,7.63,19.72,15.57,39.32,23.48,58.94,1.93,4.78,4.23,9.4,7.39,13.52,.6,.78,1.33,1.47,2,2.21,.18-.12,.35-.25,.51-.38-1.4-3.68-2.79-7.36-4.2-11.04-14.04-36.75-27.94-73.57-40.92-110.7-1.79-5.11-3.57-10.23-5.31-15.35-16.74,6.22-33.5,12.43-50.25,18.65,1.98,5.28,4.03,10.55,6.29,15.72,2.58,5.92,5.44,11.71,8.84,17.26,.92,1.49,1.93,2.94,2.64,4.52,3.94,8.92,7.89,17.82,11.67,26.81,5.28,12.54,9.65,25.46,15.88,37.59,1.59,3.11,3.16,6.24,4.55,9.43,6.13,14.19,12.18,28.4,18.26,42.61,5.82,13.61,11.9,27.12,16.54,41.21,.74,2.27,1.55,4.53,2.48,6.74,3.16,7.55,6.53,15,12.13,21.13,1.41,1.54,2.65,3.28,5.34,3.44-.12-1.35-.1-2.53-.35-3.66-.36-1.71-.83-3.4-1.41-5.05-2.58-7.29-5.21-14.54-7.83-21.83-.32-.93-.63-1.87-.95-2.8,1.37,1.15,2.3,2.63,3.6,3.66,1.3,1.03,2,2.27,2.65,3.71,3.5,7.8,6.94,15.64,10.72,23.3,1.56,3.18,3.7,6.14,5.98,8.87,3,3.59,6.36,6.86,9.6,10.23,.44,.46,1.05,.72,1.59,1.07,.12-.94-.03-1.57-.41-1.99-4.42-4.8-7.03-10.74-10.3-16.28-.28-.46-.48-.97-.64-1.49-.83-2.6-1.44-5.3-2.46-7.84-4.62-11.52-9.41-22.97-14.03-34.51-8.18-20.4-16.11-40.91-22.4-62.02-.5-1.65-.95-3.3-1.43-4.96,.85,1.02,1.28,2.16,1.71,3.31,4.74,13.25,9.45,26.52,14.25,39.75,2.95,8.12,5.95,16.23,9.11,24.28,1.14,2.89,2.83,5.55,4.33,8.27,.25,.46,.86,.71,1.3,1.06,.18-.1,.34-.19,.5-.28-.66-2.83-1.31-5.64-2.04-8.77,.36,.49,.55,.68,.67,.9,7.13,13.91,14.26,27.8,21.39,41.71,.18,.32,.48,.66,.48,.99-.1,2.33,1.68,3.37,3.09,4.59,1.59,1.38,2.41,1.21,4.27-.65-1.09-2.74-2.23-5.53-3.33-8.36Zm-58.95-115.9c-.16-.65-.32-1.29-.48-1.96-.03-.07-.07-.15-.12-.22,0-.03-.01-.07-.01-.1-.22-.24-.48-.44-.6-.71-3.18-7.71-6.37-15.45-9.52-23.18-.33-.82-.52-1.71-.5-2.68,.18,.28,.42,.51,.54,.82,3.3,8.06,6.58,16.14,9.84,24.24,.18,.46,.18,1,.23,1.5,.03,.01,.04,.03,.07,.06,.01,.09,.04,.18,.06,.26,.34,.59,.66,1.18,.99,1.77-.17,.07-.33,.13-.51,.19Zm-148.17-78.57c-1.53,5.02-3.06,10.04-4.43,15.1-.52,1.93-1.02,3.84-1.5,5.78-1.91,7.61-3.57,15.29-5.5,22.9-1.21,4.75-1.97,9.55-2.22,14.44-.04,.66,.1,1.34,.16,2.02,.23,.03,.47,.06,.71,.1,1.15-2.68,2.45-5.3,3.41-8.04,2.71-7.64,5.43-15.26,7.87-22.97,1.2-3.75,2.33-7.54,3.46-11.32,2.1-7.03,4.16-14.08,6.46-21.04-2.81,1-5.61,2.02-8.43,3.03Zm117.35-68.9c-5.64-17.16-11.05-34.41-16.14-51.77-2.81-9.62-5.6-19.29-9.92-28.37-1.55-3.27-2.27-6.55-2.27-10.1,0-8.05-.85-15.98-3.22-23.72-.54-1.8-1.17-3.41-2.39-4.61-1.36,0-3.08,.49-3.59-.1-1.4-1.62-3.94-2.46-3.89-5.24,.04-1.75-.2-3.49-.23-5.22-.04-2.56,.22-5.14-.06-7.67-.32-2.83-.79-5.7-1.73-8.34-.83-2.38-2.14-4.72-3.75-6.65-.68-.79-2.68-.47-4.27-.68,.29-1.41,.6-2.83,.9-4.28-1.25-1.06-2.41-2.12-3.65-3.08-1.07-.84-2.74-1.34-3.18-2.38-.66-1.62-1.91-1.58-3.03-2.09-.19-.07-.19-.49-.32-.71-.19-.25-.5-.69-.63-.65-1.49,.47-2.29-.79-3.31-1.35-1.37-.75-2.57-1.85-3.88-2.75-1.03-.71-2.92-.71-3.76,.1-1.36,1.31-2.86,2.58-3.86,4.14-1.78,2.77-3.43,5.67-4.8,8.67-5.78,12.52-11.27,25.18-17.16,37.66-4.2,8.9-8.08,17.94-11.42,27.2-4.08,11.35-8.08,22.72-12.34,34-11.39,30.12-22.11,60.47-31.21,91.39-2.2,7.48-4.38,14.95-6.77,22.36-2.14,6.68-4.49,13.32-7.17,19.82-1.9,4.59-3.75,9.2-5.54,13.83,.1-.07,.22-.13,.34-.18,3.86-1.6,7.74-3.16,11.62-4.71,.47-.19,.98-.31,1.75-.54-1.14,1.33-10,4.93-13.88,5.89-2.32,5.93-4.56,11.88-6.75,17.85-4.48,12.17-8.72,24.43-12.88,36.73-7.29,21.53-14.74,42.99-22.39,64.39-4.94,13.86-9.67,27.82-15.44,41.37-3.3,7.7-4.3,15.94-3.94,24.36,.15,3.63,.57,7.12,2.33,10.38,.74,1.37,1.09,2.96,1.84,4.33,1.25,2.33,2.42,4.78,4.13,6.75,1.06,1.25,3.03,1.72,4.59,2.55,1.63-1.13,3.03,.12,4.19,.76,1.36,.76,2.44,1.29,3.86,.44,.19-.12,.67-.1,.77,.03,.95,1.26,1.71,.19,2.51-.18,.64,.34,1.27,.69,1.87,1,1.28-.69,2.77-1.09,3.65-2.06,.93-1.03,1.3-2.61,1.91-3.95,.12-.25,.28-.49,.38-.74,1.72-4.36,3.47-8.68,3.89-13.44,.34-3.75,.83-7.52,1.55-11.21,2.57-13.16,7.39-25.61,11.62-38.26,.06-.13,.36-.19,.88-.46-.25,.93-.36,1.53-.57,2.12-3.5,10.14-5.41,20.63-6.85,31.23-.16,1.26-.18,2.58-.13,3.85,.06,1.62,.23,3.22,.36,4.9,.93-2.25,1.98-4.44,2.76-6.74,2.33-6.89,4.58-13.8,6.78-20.72,3.4-10.6,7.01-21.11,10.86-31.55,12.51-33.82,24.37-67.87,35.73-102.11,3.05-9.17,6.14-18.32,9.25-27.48,1.55-4.55,3.09-9.1,4.64-13.64,.25-.74,.51-1.47,.76-2.21,3.15-9.26,6.31-18.5,9.46-27.76,.2-.59,.45-1.16,.7-1.74,.16-.38,.32-.75,.48-1.13,.18,.04,.35,.1,.51,.15-.04,.22-.09,.46-.13,.68-1.04,5.09-1.82,10.23-3.21,15.22-1.21,4.39-2.54,8.74-3.87,13.1,2.47-.91,4.87-1.81,7.31-2.66,.41-.15,.82-.29,1.22-.44,.39-1.18,.8-2.35,1.23-3.53,3.09-8.68,6.28-17.34,9.61-25.95,3.32-8.64,6.8-17.23,10.4-25.75,3.22-7.61,6.27-15.31,8.47-23.33,2.11-7.71,4.71-15.29,7.1-22.93,.1-.31,.28-.59,.6-1.28,.45,1.22,.8,2.06,1.06,2.91,5.73,18.25,11.93,36.35,18.43,54.33,2.48,6.84,4.99,13.66,7.54,20.47,.2,.54,.41,1.09,.61,1.63,16.8-6.11,33.58-12.29,50.34-18.56-2.46-7.18-4.88-14.38-7.25-21.59Z"/></g></svg>